<?xml version="1.0" encoding="utf-8"?>
<!-- Generator: Adobe Illustrator 19.2.1, SVG Export Plug-In . SVG Version: 6.00 Build 0)  -->
<svg version="1.1" id="Layer_1" xmlns="http://www.w3.org/2000/svg" xmlns:xlink="http://www.w3.org/1999/xlink" x="0px" y="0px"
	 viewBox="0 0 450 60" style="enable-background:new 0 0 450 60;" xml:space="preserve">
<style type="text/css">
	.st0{fill:#FFFFFF;}
</style>
<g>
	<g>
		<path class="st0" d="M42.7,30.4c0,11.7-9.2,21-21.3,21S0,42.2,0,30.4c0-11.7,9.2-21,21.3-21S42.7,18.7,42.7,30.4z M32.5,30.4
			c0-6.3-4.7-11.7-11.2-11.7c-6.5,0-11.2,5.3-11.2,11.7c0,6.3,4.7,11.7,11.2,11.7C27.8,42.1,32.5,36.8,32.5,30.4z"/>
		<path class="st0" d="M75.5,50.6h-9.6v-1.9c-2.3,1.8-4.8,2.8-7.9,2.8c-7.3,0-12.3-5-12.3-13.2V21.9h9.6v14.9c0,4.1,2.1,6,5.3,6
			c1.8,0,3.6-1,5.3-2.8V21.9h9.6V50.6z"/>
		<path class="st0" d="M100.7,30.5c-4.7,0.2-7.6,1.4-9.9,3.6v16.5h-9.7V21.9h9.7v3.1c2.5-2.2,5.6-3.6,9.9-3.6V30.5z"/>
	</g>
	<g>
		<path class="st0" d="M140.9,50.6h-2.7l-28-35.6v35.6h-2.8V10.3h2.5l28.1,35.8V10.3h2.8V50.6z"/>
		<path class="st0" d="M174.3,37.1c0,8.1-6.4,14.4-14.3,14.4c-8.1,0-14.4-6.3-14.4-14.4c0-8,6.3-14.3,14.4-14.3
			C167.9,22.8,174.3,29.1,174.3,37.1z M171.6,37.1c0-6.5-5.1-11.8-11.6-11.8c-6.6,0-11.7,5.3-11.7,11.8c0,6.6,5.1,12,11.7,12
			C166.5,49,171.6,43.7,171.6,37.1z"/>
		<path class="st0" d="M182.6,28.9c2.4-3.8,6.5-6.1,11-6.1v2.5c-4.6,0.1-8.6,2.7-11,7.2v18.1H180v-27h2.7V28.9z"/>
		<path class="st0" d="M217.8,50.6c-2.1,0.6-3.8,0.8-5.3,0.8c-6.1,0-8.8-3.1-8.8-10.3V25.9h-7.8v-2.3h7.8V13.5h2.7v10.1h10.3v2.3
			h-10.3v15.3c0,5.6,1.9,7.8,6.5,7.8c1.4,0,3.1-0.2,4.6-0.6L217.8,50.6z"/>
		<path class="st0" d="M248.5,34.7v15.9h-2.7V34.7c0-6.1-3.7-9.6-9.1-9.6c-4.1,0-8.1,2-10.4,5.5v20h-2.7V8.5h2.7v18.7
			c2.5-2.8,6.4-4.6,10.8-4.6C243.8,22.7,248.5,27.2,248.5,34.7z"/>
		<path class="st0" d="M281.4,50.6h-2.5l-7.6-22.7l-7.6,22.7h-2.5l-10.2-27h2.8l8.6,22.9l7.7-22.9h2.4l7.7,22.9l8.6-22.9h2.9
			L281.4,50.6z"/>
		<path class="st0" d="M320.2,37.9l-0.3-0.1v0.1h-24.1c0.4,6.2,4.8,11.1,11.4,11.1c4.3,0,7.7-2,9-4.9h2.9c-1.5,4.4-6.2,7.3-12,7.3
			c-8.2,0-14-6.4-14-14.3c0-8,5.8-14.3,13.9-14.3c7.8,0,13.1,6.1,13.2,14.4C320.3,37.4,320.2,37.7,320.2,37.9z M295.8,36h21.6
			c-0.4-6.3-4.4-10.9-10.4-10.9C300.7,25.1,296.3,29.9,295.8,36z"/>
		<path class="st0" d="M326.4,42.6c1,3.9,4.1,6.6,10.1,6.6c5.1,0,8.5-2.3,8.5-5.7c0-3-2.4-4.6-5.5-5.1l-6.3-1c-4.6-0.8-8-2.7-8-7
			c0-4.6,4.2-7.6,10.5-7.6c6,0,11.2,2.8,11.7,8.4h-2.5c-0.6-4-3.8-6.2-9.1-6.2c-4.9,0-8,2.1-8,5.3c0,2.5,1.8,4.2,6,4.9l5.6,0.9
			c3.8,0.7,8.1,2.3,8.1,7.4c0,4.9-4.5,8.1-11.1,8.1c-7.4,0-11.6-3.4-12.6-8.9L326.4,42.6z"/>
		<path class="st0" d="M372.7,50.6c-2.1,0.6-3.8,0.8-5.3,0.8c-6.1,0-8.8-3.1-8.8-10.3V25.9h-7.8v-2.3h7.8V13.5h2.7v10.1h10.3v2.3
			h-10.3v15.3c0,5.6,1.9,7.8,6.5,7.8c1.4,0,3.1-0.2,4.6-0.6L372.7,50.6z"/>
		<path class="st0" d="M400.9,37.9l-0.3-0.1v0.1h-24.1c0.4,6.2,4.8,11.1,11.4,11.1c4.3,0,7.7-2,9-4.9h2.9c-1.5,4.4-6.2,7.3-12,7.3
			c-8.2,0-14-6.4-14-14.3c0-8,5.8-14.3,13.9-14.3c7.8,0,13.1,6.1,13.2,14.4C401,37.4,400.9,37.7,400.9,37.9z M376.6,36h21.6
			c-0.4-6.3-4.4-10.9-10.4-10.9C381.5,25.1,377.1,29.9,376.6,36z"/>
		<path class="st0" d="M409.3,28.9c2.4-3.8,6.5-6.1,11-6.1v2.5c-4.6,0.1-8.6,2.7-11,7.2v18.1h-2.7v-27h2.7V28.9z"/>
		<path class="st0" d="M450,34.7v15.9h-2.7V34.7c0-6.1-3.7-9.6-9.1-9.6c-4.1,0-8.1,2-10.4,5.5v20h-2.7v-27h2.7v3.7
			c2.5-2.8,6.4-4.6,10.8-4.6C445.3,22.7,450,27.2,450,34.7z"/>
	</g>
</g>
</svg>
